<svg xmlns="http://www.w3.org/2000/svg" viewBox="13 100 100 100" stroke="white">
	<path class="st1" d="M36.8,148c-2.8,0-5.5-1-7.7-3c-4.7-4.3-5-11.5-0.7-16.1c2.1-2.3,4.9-3.6,7.9-3.7c3.1-0.1,6,0.9,8.2,3
		c1.4,1.3,2.5,3,3.1,4.8c0.5,1.5,0.7,3,0.6,4.5c0,0.5-0.5,1-1.1,0.9c-0.6,0-1-0.5-0.9-1.1c0.1-1.3-0.1-2.5-0.5-3.7
		c-0.5-1.5-1.4-2.9-2.6-4c-1.9-1.7-4.3-2.6-6.8-2.5c-2.5,0.1-4.8,1.2-6.5,3.1c-3.5,3.8-3.2,9.8,0.6,13.3c3.8,3.5,9.8,3.2,13.3-0.6
		c0.4-0.4,1-0.4,1.4-0.1c0.4,0.4,0.4,1,0.1,1.4C43,146.7,39.9,148,36.8,148z"/>
	<path class="st1" d="M54.4,190.2c-3.6,0-7.1-1.7-9.3-4.8c-3.6-5.1-2.4-12.3,2.7-15.9c3-2.1,6.8-2.7,10.3-1.5
		c0.5,0.2,0.8,0.7,0.6,1.3c-0.2,0.5-0.7,0.8-1.3,0.6c-2.9-1-6-0.5-8.5,1.2c-4.2,3-5.2,8.9-2.2,13.1c3,4.2,8.9,5.2,13.1,2.2
		c2.1-1.5,3.4-3.6,3.8-6.1c0.4-2.5-0.1-5-1.6-7c-0.3-0.5-0.2-1.1,0.2-1.4c0.5-0.3,1.1-0.2,1.4,0.2c1.8,2.5,2.5,5.5,1.9,8.5
		c-0.5,3-2.2,5.6-4.7,7.4C59,189.5,56.7,190.2,54.4,190.2z"/>
	<path class="st1" d="M69,122.8c-0.1,0-0.3,0-0.4-0.1c-3.5-1.6-5.1-5.7-3.5-9.2c1.6-3.5,5.7-5.1,9.2-3.5c1.7,0.8,3,2.1,3.7,3.9
		c0.7,1.7,0.6,3.6-0.1,5.4c-0.6,1.4-1.7,2.6-3.1,3.3c-0.5,0.3-1.1,0.1-1.4-0.4c-0.3-0.5-0.1-1.1,0.4-1.4c1-0.5,1.7-1.4,2.2-2.4
		c0.5-1.2,0.6-2.6,0.1-3.8c-0.5-1.2-1.4-2.2-2.6-2.8c-2.5-1.1-5.5,0-6.6,2.5c-1.1,2.5,0,5.5,2.5,6.6c0.5,0.2,0.7,0.8,0.5,1.3
		C69.8,122.6,69.4,122.8,69,122.8z"/>
	<path class="st1" d="M88.4,152.6c-1.1,0-2.2-0.2-3.3-0.6c-1.9-0.7-3.4-2.1-4.5-3.8c-0.3-0.5-0.1-1.1,0.3-1.4
		c0.5-0.3,1.1-0.1,1.4,0.3c0.8,1.3,2,2.4,3.5,3c3.6,1.4,7.8-0.4,9.2-4c1.4-3.6-0.4-7.8-4-9.2c-3.6-1.4-7.8,0.4-9.2,4
		c-0.2,0.5-0.8,0.8-1.3,0.6c-0.5-0.2-0.8-0.8-0.6-1.3c1.8-4.7,7.1-7,11.8-5.1c4.7,1.8,7,7.1,5.1,11.8
		C95.5,150.4,92.1,152.6,88.4,152.6z"/>
	<path class="st1" d="M88.4,171.2c-1.2,0-2.4-0.4-3.4-1.2c-1.2-0.9-1.9-2.2-2-3.7c-0.1-1.2,0.1-2.4,0.8-3.5c0.3-0.5,0.9-0.6,1.4-0.3
		c0.5,0.3,0.6,0.9,0.3,1.4c-0.4,0.7-0.6,1.4-0.5,2.2c0.1,0.9,0.6,1.8,1.3,2.3c0.7,0.6,1.6,0.8,2.6,0.7c0.9-0.1,1.8-0.6,2.3-1.3
		c0.6-0.7,0.8-1.6,0.7-2.6c-0.1-0.9-0.6-1.8-1.3-2.3c-0.7-0.6-1.6-0.8-2.6-0.7c-0.5,0.1-1-0.3-1.1-0.9c-0.1-0.5,0.3-1,0.9-1.1
		c1.5-0.2,2.9,0.2,4,1.2c1.2,0.9,1.9,2.2,2,3.7c0.3,3-1.8,5.7-4.8,6.1C88.8,171.2,88.6,171.2,88.4,171.2z"/>
	<path class="st1" d="M67.6,164.8c-3.9,0-7.7-1.3-10.8-3.6c-3.8-2.9-6.3-7.1-7-11.9c-0.7-4.8,0.6-9.5,3.5-13.3
		c2.9-3.8,7.1-6.3,11.9-7c4.8-0.7,9.5,0.6,13.3,3.5l-1.2,1.6c-3.4-2.6-7.6-3.7-11.9-3.1c-4.2,0.6-8,2.8-10.6,6.2
		c-2.6,3.4-3.7,7.6-3.1,11.8c0.6,4.2,2.8,8,6.2,10.6c3.4,2.6,7.6,3.7,11.8,3.1c4.2-0.6,8-2.8,10.6-6.2c0.3-0.4,1-0.5,1.4-0.2
		c0.4,0.3,0.5,1,0.2,1.4c-2.9,3.8-7.1,6.3-11.9,7C69.3,164.8,68.4,164.8,67.6,164.8z"/>
</svg>
